<svg width="278" height="230" viewBox="0 0 278 230" fill="none" xmlns="http://www.w3.org/2000/svg">
<g id="logo">
<g id="Vector 12">
<path d="M256.5 104C245.3 119.2 216.167 130.333 204 133.5L204.5 131C235.5 122 251 109 252.5 105L239.5 113.5L251 102.5C252.2 100.5 251.5 99.3333 251 99L243.5 105L249.5 98V95.5L244.5 99L249.5 93V91L247 92.5L249.5 89L250 77C250 81.4 251.667 88.1667 252.5 91L269 75.5C264.2 74.7 260 72.5 258.5 71.5C261.7 69.1 262.5 63.1667 262.5 60.5L257.5 63L263.5 57.5V55L250 64L263.5 52V49.5L242 65L266.5 44C266.1 58 263.667 67.8334 262.5 71.0001C268.1 70.6001 274.5 72.5001 277 73.5001L253.5 93.5001C253.1 97.1001 255.333 102 256.5 104Z" fill="#3E4684"/>
<path d="M246.5 74C241.7 85.6 216 95.3333 204 99L204.5 102C233.3 93.2 246.5 79.8333 249.5 74V70C246.7 70 243 72 241.5 73H246.5V74Z" fill="#3E4684"/>
<path d="M256.5 104C245.3 119.2 216.167 130.333 204 133.5L204.5 131C235.5 122 251 109 252.5 105L239.5 113.5L251 102.5C252.2 100.5 251.5 99.3333 251 99L243.5 105L249.5 98V95.5L244.5 99L249.5 93V91L247 92.5L249.5 89L250 77C250 81.4 251.667 88.1667 252.5 91L269 75.5C264.2 74.7 260 72.5 258.5 71.5C261.7 69.1 262.5 63.1667 262.5 60.5L257.5 63L263.5 57.5V55L250 64L263.5 52V49.5L242 65L266.5 44C266.1 58 263.667 67.8334 262.5 71.0001C268.1 70.6001 274.5 72.5001 277 73.5001L253.5 93.5001C253.1 97.1001 255.333 102 256.5 104Z" stroke="#3E4684"/>
<path d="M246.5 74C241.7 85.6 216 95.3333 204 99L204.5 102C233.3 93.2 246.5 79.8333 249.5 74V70C246.7 70 243 72 241.5 73H246.5V74Z" stroke="#3E4684"/>
</g>
<path id="Vector 13" d="M131.5 10L161.5 39L131.5 12L23.5 113.5L30.5 121.5L22 113.5L131.5 10Z" stroke="#3E4684"/>
<path id="Vector 14" d="M131.5 1L67 65L131.5 5.5L208.5 80C205.959 81.5021 204 85.5 204.5 88C205 90.5 210.167 91.5 212.5 91C219.743 89.448 222.5 84 223 82C216.2 88.8 208 88 207.5 85.5C207 82.5 215.5 78.5 219 77C215 77 211.333 78.1667 210 79L131.5 1Z" fill="#3E4684" stroke="#3E4684"/>
<path id="Vector 15" d="M132.5 221L17.5 115.5L131.5 228.5L208.5 152.5L132.5 221Z" fill="#3E4684" stroke="#3E4684"/>
<g id="Vector 16">
<path d="M105 190.5L132.5 213L223 132.5L222.742 146.038C222.62 166.58 223.67 192.5 228.5 192.5C233 192.5 237.5 183.7 229.5 132.5L236 129.5V121L238 119.5V131L233 133.5L233.078 134.147C234.601 146.84 237.5 170.995 237.5 176.5C237.5 179.5 238.5 197 229.5 197C227 197 222 194.5 222 185L222.742 146.038C222.772 141.062 222.87 136.4 223 132.5L132.5 216L105 190.5Z" fill="#3E4684"/>
<path d="M236.5 84L238.5 82.5V69.1866C238.5 56.5 232.636 39.0679 228.5 37C224.5 35 222.5 35.5 222.5 36.5L224 86.4999L225 38.5C232.5 38.5 236.5 64 236.5 69.1866V84Z" fill="#3E4684"/>
<path d="M223 132.5L132.5 213L105 190.5L132.5 216L223 132.5ZM223 132.5C222.333 152.5 222.5 192.5 228.5 192.5C233 192.5 237.5 183.7 229.5 132.5L236 129.5V121L238 119.5V131L233 133.5C234.5 146 237.5 170.9 237.5 176.5C237.5 179.5 238.5 197 229.5 197C227 197 222 194.5 222 185L223 132.5ZM238.5 82.5L236.5 84V69.1866C236.5 64 232.5 38.5 225 38.5L224 86.4999L222.5 36.5C222.5 35.5 224.5 35 228.5 37C232.636 39.0679 238.5 56.5 238.5 69.1866V82.5Z" stroke="#3E4684"/>
</g>
<g id="Vector 17">
<path d="M44 189.5C39.6 200.7 34.5 194 34.5 189.5V176.64C31.8292 178.744 30.0142 180.617 29 182C26.2 184.4 29.1667 185.667 31 186H25C23.8 182 28.5 177 31 175C43.8 165 64 159.167 72.5 157.5L74 160C62.3297 162.403 53.0648 165.873 46 169.448C46 174.132 45.6 184.7 44 189.5Z" fill="#3E4684"/>
<path d="M50.5 82L44 89.5L44 134.441C50.4486 131.161 56.3807 128.98 60 128V130C50.3333 133.5 29.7 142.7 24.5 151.5V154.5C25.8333 152 30.6 146.1 39 142.5C34.6667 145.833 25.7 153.5 24.5 157.5V160C25.3333 158.167 28.1 154.2 32.5 153C30 155.333 25 160.5 25 162.5V165L28 162.5C27.1667 163.333 25.4 165.4 25 167V175C23.6188 172.391 22.6841 168.987 22.0942 165.5C21.1467 159.898 21.0891 154.082 21.5 151C27.633 143.991 36.1948 138.411 44 134.441L44 89.5L50.5 82V36H47.5L46 78.5L44.5 36H41.5L40.5 78L38.5 36H35.5L34.5 78L32.5 36H29.5L31.5 81L38.5 89L37.5 137.5L35 139L36 89.5L29 82L29.5 36H32.5L34.5 78L35.5 36H38.5L40.5 78L41.5 36H44.5L46 78.5L47.5 36H50.5V82Z" fill="#3E4684"/>
<path d="M29.5 36H32.5L34.5 78L35.5 36H38.5L40.5 78L41.5 36H44.5L46 78.5L47.5 36H50.5V82L44 89.5L44 134.441M29.5 36L29 82L36 89.5L35 139L37.5 137.5L38.5 89L31.5 81L29.5 36ZM34.5 176.5V189.5C34.5 194 39.6 200.7 44 189.5C45.6 184.7 46 174.132 46 169.448M21.5 163.5C15.6667 168 3.4 177.8 1 181L17 182L13.5 201L21.5 180L16 179L19.5 175C17.8333 176 15.5657 177.934 15 178.5C14.5 179 14.5 179 14 179L12.5 178.5L20.5 170C17.8333 171.333 12 174.8 10 178H7.5L22.0942 165.5M22.0942 165.5C21.1467 159.898 21.0891 154.082 21.5 151C27.633 143.991 36.1948 138.411 44 134.441M22.0942 165.5C22.6841 168.987 23.6188 172.391 25 175V167C25.4 165.4 27.1667 163.333 28 162.5L25 165V162.5C25 160.5 30 155.333 32.5 153C28.1 154.2 25.3333 158.167 24.5 160V157.5C25.7 153.5 34.6667 145.833 39 142.5C30.6 146.1 25.8333 152 24.5 154.5V151.5C29.7 142.7 50.3333 133.5 60 130V128C56.3807 128.98 50.4486 131.161 44 134.441M46 169.448C36.5988 174.204 31.0935 179.145 29 182C26.2 184.4 29.1667 185.667 31 186H25C23.8 182 28.5 177 31 175C43.8 165 64 159.167 72.5 157.5L74 160C62.3297 162.403 53.0648 165.873 46 169.448Z" stroke="#3E4684"/>
</g>
<g id="Vector 18">
<path d="M74.9674 72.2129C75.6909 71.336 76.3748 70.594 77 70C76.2933 70.7224 75.6161 71.4606 74.9674 72.2129C72.0483 75.7507 68.4835 81.4838 65.519 88.5454C59.8478 104.034 61.0148 120.592 63 129C69.2569 155.5 86.5 170.5 95.5 175.5C126.5 192.722 151 183.5 163 178C187.023 166.99 195.5 146.833 199.5 135.5C206.3 112.3 200.48 93.2095 197 86C188.235 67.8439 173.068 56.4166 159.351 50.0002C153.06 47.1397 145.964 44.8523 138 43.5C143.484 44.1232 151.159 46.1679 159.351 50.0002C186.558 62.3696 198.728 85.4561 201 90C207.5 103 205.5 125 204 133.5C201.794 146 190.167 161.833 183.5 169C169.9 183 145.5 189.5 134.5 189.5C113.3 189.9 96 180.333 90 175.5C66 157.5 61.1875 133 60 123.5C58.4165 110.832 61.3836 98.3961 65.519 88.5454C67.6239 82.7968 70.6708 77.1955 74.9674 72.2129Z" fill="#3E4684"/>
<path d="M77 70C70.3334 76.3333 57 99.5 60 123.5C61.1875 133 66 157.5 90 175.5C96 180.333 113.3 189.9 134.5 189.5C145.5 189.5 169.9 183 183.5 169C190.167 161.833 201.794 146 204 133.5C205.5 125 207.5 103 201 90C198.203 84.4053 180.4 50.7 138 43.5C152.667 45.1667 183 57 197 86C200.48 93.2095 206.3 112.3 199.5 135.5C195.5 146.833 187.023 166.99 163 178C151 183.5 126.5 192.722 95.5 175.5C86.5 170.5 69.2569 155.5 63 129C60.1667 117 59.0001 88.4 77 70Z" stroke="#3E4684"/>
</g>
<path id="Ellipse 6" d="M198 115.5C198 151.954 168.671 181.5 132.5 181.5C96.3289 181.5 67 151.954 67 115.5C67 79.0456 96.3289 49.5 132.5 49.5C168.671 49.5 198 79.0456 198 115.5Z" stroke="#3E4684"/>
<path id="Subtract" fill-rule="evenodd" clip-rule="evenodd" d="M118 111V126.5H147V109.5C150.5 108 154 105 154 99.5C153.833 95.3333 152.5 88 143 88C141.5 85 138.5 82 132 82C128 82.2106 124.5 82.4999 121 88C116.5 88 110 91.9999 110 99.5C110 103 110.4 108.2 118 111ZM119 106.5C116.833 106 113 103.5 113 99C113 96 114.455 90.5 121.5 90.5H124.5C126.5 86.5 128 85 132.5 85C135.5 85 139 85.5 142 91C145.167 91 151.5 92.7 151.5 99.5C151.5 102 149.3 107.7 144.5 108.5V125.5H119V110.5V106.5Z" fill="#3E4684"/>
<g id="Vector 21">
<path d="M131.644 142.5C127.144 146 122.144 144.5 121.644 144.5V142.5L126.144 141C123.644 140 118.644 137.306 115.144 134C111.544 136.4 107.192 135 105.466 134C108.523 131.6 112.093 131.641 113.378 132.141C112.213 130.804 110.869 129.057 109.562 127C109.097 127.562 106.976 127.568 105.974 127.5C103.438 127.5 100.697 125.167 99.6437 124C103.244 122.8 106.957 124.167 108.364 125C107.494 123.456 106.674 121.779 105.974 120C104.638 120.4 101.864 118.833 100.644 118C97.8438 116 97.8104 113.5 98.1438 112.5C103.144 113.5 104.144 116 104.759 116.5C104.416 115.357 104.22 114.342 104.144 113.5V111C103.31 111 101.644 110 101.644 106C101.703 104.667 102.186 101.8 103.644 101C104.31 101.5 105.744 103.4 106.144 107C106.144 107.833 105.744 109.8 104.144 111V113.5C104.384 114.942 104.733 116.349 105.162 117.709C105.256 117.968 105.357 118.232 105.466 118.5C106.358 117.833 108.344 115.7 109.144 112.5C110.144 114.288 111.144 118.678 107.144 121.932C108.167 123.716 109.487 125.603 111.159 127.5C111.154 125.833 111.844 121.9 114.644 119.5C115.338 122.058 116.009 127.656 113.144 129.586C114.594 131.002 116.253 132.404 118.144 133.755C118.144 132.975 118.844 131.231 121.644 130.5C121.699 131.833 121.443 134.6 119.977 135C122.488 136.621 125.362 138.145 128.644 139.5H136.144C138.118 138.813 141.455 137.295 144.937 135C144.173 134.667 142.644 133.4 142.644 131C144.144 131.136 147.144 131.815 147.144 133.449C148.667 132.305 150.169 131.016 151.548 129.586C150.08 128.724 147.744 125.5 150.144 119.5C151.435 121 154.198 124.554 153.5 127.354C153.72 127.074 153.935 126.789 154.144 126.5C154.967 125.402 156.13 123.614 157.213 121.5C155.926 120.833 153.711 118.1 155.144 112.5C156.124 113.619 158.177 116.18 158.849 117.799C159.123 117.056 159.366 116.3 159.565 115.544C159.947 113.857 160.144 112.434 160.144 111.5C160.144 111 155.644 107 160.644 101C162.296 103.167 164.51 108.3 160.144 111.5C160.144 112.808 159.925 114.178 159.565 115.544C159.531 115.694 159.496 115.846 159.459 116C160.687 114.833 163.844 112.5 166.644 112.5C166.144 114.956 163.844 119.682 158.644 118.934C158.177 120.415 157.606 121.971 156.934 123.5C157.967 124.754 162.171 124.689 164.144 124.5C162.144 127.3 157.289 127.129 155.289 126.795C154.635 127.945 153.919 129.031 153.144 130C152.673 130.588 152.003 131.315 151.144 132.135C153.31 132.09 157.844 132.5 158.644 134.5C157.144 135.5 152.887 136.592 149.287 133.792C146.425 136.196 142.315 139.038 137.144 141.5C138.344 141.1 141.644 142 142.644 142.5V144.5C138.244 145.3 134.81 143.5 133.644 142.5H131.644Z" fill="#3E4684"/>
<path d="M115.144 134C118.644 137.306 123.644 140 126.144 141L121.644 142.5V144.5C122.144 144.5 127.144 146 131.644 142.5H133.644C134.81 143.5 138.244 145.3 142.644 144.5V142.5C141.644 142 138.344 141.1 137.144 141.5C143.567 138.441 148.353 134.798 151.144 132.135M115.144 134C113.745 132.679 111.608 130.221 109.562 127M115.144 134C111.544 136.4 107.192 135 105.466 134C108.523 131.6 112.093 131.641 113.378 132.141M104.144 113.5V111M104.144 113.5C104.22 114.342 104.416 115.357 104.759 116.5M104.144 113.5C104.522 115.769 105.168 117.952 105.974 120M160.144 111.5C160.144 114.794 158.76 118.48 157.213 121.5M160.144 111.5C160.144 112.517 159.911 114.113 159.459 116M160.144 111.5C160.144 111 155.644 107 160.644 101C162.296 103.167 164.51 108.3 160.144 111.5ZM104.144 111C103.31 111 101.644 110 101.644 106C101.703 104.667 102.186 101.8 103.644 101C104.31 101.5 105.744 103.4 106.144 107C106.144 107.833 105.744 109.8 104.144 111ZM105.466 118.5C106.358 117.833 108.344 115.7 109.144 112.5C110.144 114.288 111.144 118.678 107.144 121.932M105.466 118.5C105.902 119.579 106.456 120.732 107.144 121.932M105.466 118.5C105.183 117.8 104.949 117.13 104.759 116.5M107.144 121.932C108.167 123.716 109.487 125.603 111.159 127.5M104.759 116.5C104.144 116 103.144 113.5 98.1438 112.5C97.8104 113.5 97.8438 116 100.644 118C101.864 118.833 104.638 120.4 105.974 120M105.974 120C106.674 121.779 107.494 123.456 108.364 125M108.364 125C106.957 124.167 103.244 122.8 99.6437 124C100.697 125.167 103.438 127.5 105.974 127.5C106.976 127.568 109.097 127.562 109.562 127M108.364 125C108.755 125.695 109.157 126.362 109.562 127M111.159 127.5C111.154 125.833 111.844 121.9 114.644 119.5C115.338 122.058 116.009 127.656 113.144 129.586M111.159 127.5C111.772 128.196 112.433 128.893 113.144 129.586M113.144 129.586C114.594 131.002 116.253 132.404 118.144 133.755M118.144 133.755C118.144 132.975 118.844 131.231 121.644 130.5C121.699 131.833 121.443 134.6 119.977 135M118.144 133.755C118.732 134.176 119.343 134.591 119.977 135M119.977 135C122.488 136.621 125.362 138.145 128.644 139.5H136.144C138.118 138.813 141.455 137.295 144.937 135M144.937 135C144.173 134.667 142.644 133.4 142.644 131C144.144 131.136 147.144 131.815 147.144 133.449M144.937 135C145.67 134.517 146.409 134 147.144 133.449M147.144 133.449C148.667 132.305 150.169 131.016 151.548 129.586M151.548 129.586C152.48 128.621 153.355 127.592 154.144 126.5C154.967 125.402 156.13 123.614 157.213 121.5M151.548 129.586C150.08 128.724 147.744 125.5 150.144 119.5C151.435 121 154.198 124.554 153.5 127.354M151.144 132.135C152.003 131.315 152.673 130.588 153.144 130C154.632 128.14 155.902 125.851 156.934 123.5M151.144 132.135C153.31 132.09 157.844 132.5 158.644 134.5C157.144 135.5 152.887 136.592 149.287 133.792M155.289 126.795C157.289 127.129 162.144 127.3 164.144 124.5C162.171 124.689 157.967 124.754 156.934 123.5M156.934 123.5C157.606 121.971 158.177 120.415 158.644 118.934M157.213 121.5C155.926 120.833 153.711 118.1 155.144 112.5C156.166 113.667 158.354 116.4 158.927 118M158.927 118C159.129 117.308 159.307 116.637 159.459 116M158.927 118C158.837 118.307 158.743 118.619 158.644 118.934M159.459 116C160.687 114.833 163.844 112.5 166.644 112.5C166.144 114.956 163.844 119.682 158.644 118.934" stroke="#3E4684"/>
</g>
<g id="Vector 20">
<path d="M91.0234 115.5C93.0234 149.1 122.19 156.5 136.523 156L123.023 156.5L126.023 158.5L117.023 157.5L120.523 160C90.9234 153.6 84.5559 125.5 85.0234 113.5C86.4648 76.5 117.523 68 131.523 68C146.523 68 158.523 75.4999 163.023 80C177.023 94.0004 178.523 107.983 178.523 115.5C178.523 121 174.857 127.833 173.023 130V125.5L168.018 133.744C167.053 135.681 165.898 137.61 164.523 139.5L168.018 133.744C173.79 122.154 172.737 110.264 171.023 104.5C163.981 80.8121 144.023 74.5 131.523 74.5C101.023 74.5 91.0234 101.5 91.0234 115.5Z" fill="#3E4684"/>
<path d="M136.523 156C122.19 156.5 93.0234 149.1 91.0234 115.5C91.0234 101.5 101.023 74.5 131.523 74.5C144.023 74.5 163.981 80.8121 171.023 104.5C173.023 111.227 174.123 126.3 164.523 139.5L173.023 125.5V130C174.857 127.833 178.523 121 178.523 115.5C178.523 107.983 177.023 94.0004 163.023 80C158.523 75.4999 146.523 68 131.523 68C117.523 68 86.4648 76.5 85.0234 113.5C84.5559 125.5 90.9234 153.6 120.523 160L117.023 157.5L126.023 158.5L123.023 156.5L136.523 156Z" stroke="#3E4684"/>
</g>
</g>
</svg>
